<svg width="964" height="271" viewBox="0 0 964 271" fill="none" xmlns="http://www.w3.org/2000/svg">
<g clip-path="url(#clip0_2230_199)">
<path d="M344.123 211.905H312.397C302.456 211.905 303.302 203.656 302.244 196.677V151.414C302.244 151.414 309.224 151.202 317.05 151.202C325.722 151.202 336.72 149.933 347.296 155.855C341.796 144.222 329.952 137.031 317.05 137.454H302.456V122.86C302.456 122.86 302.456 110.17 299.283 106.574H320.222C338.201 106.574 352.16 106.362 366.754 115.88C366.754 115.88 364.005 91.9798 329.106 91.9798H261C261 91.9798 272.844 102.132 272.421 122.649L272.844 205.137C272.844 225.865 281.093 226.499 281.093 226.499H348.142C363.37 226.499 368.658 215.712 368.658 209.79L368.869 201.964C368.869 201.964 364.005 211.905 344.123 211.905Z" fill="#D71A21"/>
<path d="M522.636 204.925V147.184C522.636 124.764 504.447 118.841 490.699 118.841C472.72 118.841 467.221 133.858 464.894 139.146C460.876 125.187 446.705 118.841 435.283 118.841C413.498 118.841 407.999 139.569 407.999 139.569C407.999 139.569 407.576 119.476 390.02 119.476H372.888C372.888 119.476 382.829 123.495 382.829 140.838V204.925C382.829 226.076 391.289 226.499 391.289 226.499H419.632C412.863 221.423 408.845 213.386 408.845 204.714V147.818C409.268 145.28 413.498 136.82 425.554 136.82C432.534 136.82 440.148 144.011 439.936 152.048V204.925C439.936 226.288 448.397 226.499 448.397 226.499H476.739C469.971 221.212 465.952 213.386 465.952 204.714V147.818C468.702 139.569 477.585 134.916 486.045 137.666C492.391 139.781 496.832 145.491 497.044 152.26C497.044 152.26 497.044 200.484 497.044 204.925C497.255 226.499 505.504 226.288 505.504 226.288C520.31 226.288 533.846 226.288 533.846 226.288C526.867 221.212 522.848 213.386 522.636 204.925Z" fill="#D71A21"/>
<path d="M572.129 204.925C572.129 213.386 576.148 221.423 582.916 226.499C582.916 226.499 569.38 226.499 554.574 226.499C554.574 226.499 545.902 226.711 545.902 205.137V140.627C545.902 123.706 536.173 119.264 536.173 119.264H553.305C559.439 119.264 571.918 119.264 571.918 143.165V204.502L572.129 204.925Z" fill="#D71A21"/>
<path d="M659.271 127.513C659.271 127.513 656.521 119.899 644.888 119.899C627.122 119.899 622.891 141.05 622.891 141.05C621.411 124.341 616.969 119.476 604.49 119.476H587.358C587.358 119.476 597.299 123.495 597.299 140.838V204.925C597.299 226.076 605.759 226.499 605.759 226.499H634.101C627.333 221.423 623.314 213.386 623.314 204.925V152.26C623.949 147.818 626.487 143.799 630.294 141.473C639.812 135.128 652.291 137.031 659.694 145.703L659.271 127.513Z" fill="#D71A21"/>
<path d="M791.041 131.32C796.963 131.32 802.674 132.801 807.75 135.551V119.476H784.061V94.9409C778.985 102.978 772.428 110.17 765.025 116.303C756.988 122.86 740.067 131.109 740.067 131.109L758.046 131.32V205.771C758.046 226.499 766.718 226.499 766.718 226.499C782.158 226.499 794.848 226.499 794.848 226.499C788.08 221.635 784.061 213.809 783.85 205.56V131.32C791.464 131.32 786.388 131.32 791.041 131.32Z" fill="#D71A21"/>
<path d="M876.913 163.681C861.05 180.179 848.571 177.641 838.63 189.908C838.63 189.908 840.322 206.406 852.801 212.117C857.032 214.02 874.587 220.366 885.797 200.907V218.251C885.797 218.251 878.606 226.711 855.551 226.711C827.843 226.711 808.808 204.926 808.808 175.314C808.808 146.126 824.248 119.264 853.647 119.053C882.201 118.63 897.853 141.896 876.913 163.681ZM859.57 156.913C864.223 148.241 868.03 126.244 851.955 127.513C833.343 128.994 836.938 178.275 836.938 178.275C843.072 171.507 852.378 170.027 859.57 156.913Z" fill="#D71A21"/>
<path d="M559.016 110.804C566.207 110.593 571.706 104.67 571.706 97.6905C571.495 90.4992 565.573 85 558.593 85C551.613 85.2115 545.902 90.9222 545.902 97.902C545.902 105.093 551.825 110.804 559.016 110.804Z" fill="#D71A21"/>
<path d="M688.671 214.232C682.326 214.232 677.672 207.464 677.672 200.695C677.672 174.045 699.458 170.238 705.38 163.258V208.31C702.63 210.425 700.092 214.232 688.671 214.232ZM705.38 152.894C698.823 164.316 647.638 166.854 655.464 206.406C658.637 222.058 669.001 226.711 682.114 226.711C694.805 226.711 702.63 220.154 705.803 213.809C707.707 225.653 713.84 226.499 713.84 226.499C728.646 226.499 742.183 226.499 742.183 226.499C735.414 221.423 731.184 213.597 731.184 205.137V144.857C731.184 130.474 715.321 119.264 698.4 119.264C688.882 119.053 679.787 121.803 671.962 127.09V145.703C671.962 145.703 677.884 130.897 692.478 130.897C706.861 130.897 707.918 138.089 707.918 141.684C708.13 145.492 707.495 149.51 705.38 152.894Z" fill="#D71A21"/>
<path d="M939.52 197.311C939.732 204.925 932.963 214.866 918.581 214.866C903.775 214.866 897.853 199.849 897.853 199.849V218.885C905.89 223.961 915.197 226.499 924.715 226.499C943.962 226.499 963.632 211.905 963.209 191.389C962.998 184.621 960.671 178.064 956.652 172.776C950.096 164.104 938.251 157.97 928.945 152.26C923.657 149.087 920.907 143.165 920.907 141.261C920.696 137.666 922.599 130.474 936.771 130.474C950.73 130.474 956.864 145.28 956.864 145.28V127.302C949.038 121.802 939.52 118.841 929.791 118.841C912.87 118.841 897.43 130.051 897.853 144.434C898.064 157.124 903.352 165.162 913.716 172.988C918.369 176.372 923.234 179.333 928.31 182.083C936.348 186.524 939.309 192.023 939.52 197.311Z" fill="#D71A21"/>
<path d="M139.13 22.1232C134.706 27.8588 132.248 34.9055 132.248 42.116C132.248 44.5742 132.248 102.75 132.248 104.88C131.92 109.633 130.117 114.057 127.168 117.827C125.529 119.465 115.86 128.151 115.041 129.134L120.449 129.298C122.251 127.659 140.933 111.108 142.736 108.813C148.144 102.914 151.257 95.2117 151.257 87.1818C151.257 84.5598 151.257 29.3337 151.257 26.8756C151.093 20.8122 153.388 14.7488 157.648 10.3242C159.943 7.86603 167.153 1.80264 168.464 0.327755L162.729 0.163876C161.581 1.63876 141.097 20.1567 139.13 22.1232Z" fill="#D71A21"/>
<path d="M93.0815 250.402L115.86 270.231H131.101C145.686 270.231 159.779 264.495 170.103 254.171C179.444 244.83 182.885 232.212 182.885 220.413V187.801C182.722 180.427 179.608 173.38 174.036 168.464C173.053 167.481 166.334 161.09 166.334 161.09V186.163C166.334 186.163 173.708 193.701 175.019 195.176C181.738 202.386 181.738 215.496 160.271 236.309C156.501 239.914 145.849 250.074 131.101 250.074L93.0815 250.402Z" fill="#D71A21"/>
<path d="M156.501 116.516C154.043 119.138 151.585 125.693 151.585 131.592V143.883H164.04C168.956 143.883 175.347 139.458 176.658 137.164C176.658 137 176.658 124.873 176.658 124.873C178.461 127.495 180.755 129.953 183.377 131.92C184.688 130.281 196.159 116.516 205.664 116.352C221.56 116.188 217.955 136.344 211.563 142.736C209.433 144.866 200.092 153.388 197.142 156.173C189.604 163.384 176.658 159.943 176.658 141.425C176.658 141.425 162.892 154.535 160.762 156.337C158.632 158.14 151.585 165.678 151.585 165.678V198.289C151.585 213.858 146.505 219.102 142.244 223.854C140.605 225.657 123.071 241.717 120.612 243.519L114.877 243.683C114.877 243.683 125.201 234.342 127.168 232.212C129.462 229.754 132.248 224.837 132.248 216.644C132.248 214.513 131.92 165.514 131.92 165.514H51.9486C24.0898 165.514 18.1902 134.706 18.0263 126.348C18.0263 123.89 18.0263 99.3086 18.0263 95.3756C18.0263 90.2955 14.7488 81.7739 9.6687 79.1519H17.5347C18.518 79.4797 23.4342 81.4462 23.4342 100.456C23.4342 100.456 23.1065 122.415 23.1065 123.726C23.1065 133.395 30.8086 144.374 41.7883 144.374L132.248 144.211C132.248 141.752 134.706 132.575 139.13 127.659C141.589 124.873 161.09 107.175 163.22 105.372H168.956C168.136 106.191 158.632 114.549 156.665 116.843L156.501 116.516ZM186.163 135.034C188.457 138.147 191.079 141.261 193.865 144.047C203.697 151.913 208.286 143.391 201.731 134.542C199.109 130.937 189.112 131.92 186.163 135.034Z" fill="#D71A21"/>
<path d="M89.1483 193.373C89.1483 197.798 75.2189 209.433 74.3995 210.089C73.4163 205.336 69.811 200.256 59.4868 189.768L74.7273 174.528C85.0514 184.852 89.1483 187.146 89.1483 193.373Z" fill="#D71A21"/>
<path d="M115.696 18.1902C118.81 21.3038 125.365 29.4976 121.432 33.5945C117.99 37.0359 112.583 42.6077 112.583 42.6077C112.255 40.6411 107.175 35.7249 107.175 35.7249C107.175 35.7249 107.175 50.4737 107.175 52.2763C107.011 58.9952 104.553 60.7979 104.553 60.7979C104.553 60.7979 116.843 72.9246 116.843 88.6567C116.843 96.195 116.843 103.242 116.843 104.717C117.007 107.666 115.86 110.78 113.73 112.91C112.583 114.221 101.275 125.693 99.4726 127.167C96.8506 129.462 93.573 130.773 90.1316 130.609H47.6879C40.969 130.609 34.0862 125.365 34.0862 120.121C34.0862 118.81 34.2501 104.389 34.2501 104.389C36.3805 106.847 38.6747 109.797 43.9187 109.797C48.1795 109.797 52.4403 106.519 53.5874 105.208C54.7345 103.897 85.707 71.7775 85.707 71.7775C85.707 71.7775 71.286 58.3397 61.7812 51.9486C57.1927 48.8349 50.9654 52.7679 49.9821 56.8648C47.0323 69.6471 49.9821 88.9845 49.9821 88.9845L38.347 77.3493C33.5946 72.5969 33.7584 61.945 39.4941 56.3732C40.3135 55.39 48.9989 45.8852 59.8146 45.8852H76.6938C88.0013 45.8852 100.456 57.1926 100.456 57.1926C101.439 56.0455 102.095 54.7344 102.258 53.2596C102.258 47.36 102.095 31.7919 102.095 31.7919C93.573 23.2703 92.4259 14.4211 96.5228 10.3242C104.225 2.62201 107.011 0 107.011 0C107.011 0 106.683 9.34091 115.696 18.1902ZM62.4367 103.406C58.1759 107.83 57.5204 108.813 53.5874 111.272H101.439C114.385 111.272 111.763 103.242 109.469 99.1447C104.717 90.7871 89.64 75.3828 89.64 75.3828C89.64 75.3828 63.256 102.586 62.4367 103.406Z" fill="#D71A21"/>
<path d="M7.86603 146.996H0C0 146.996 8.35767 151.585 8.35767 163.548V201.731C8.35767 226.476 28.8421 249.419 53.7512 249.419H74.5634C87.0179 249.419 91.4426 246.469 98.9809 239.75C101.767 237.292 105.372 233.195 106.683 231.72C110.944 226.804 115.696 222.871 115.696 210.089V197.634C115.696 186.818 109.469 182.394 106.355 179.28C104.389 177.313 99.1447 172.233 99.1447 172.233V197.798C99.1447 197.798 104.389 203.37 106.683 205.172C117.499 213.694 108.977 228.443 98.817 228.443C96.8505 228.443 56.0455 228.443 53.0957 228.443C36.3804 228.77 13.6017 213.858 13.6017 188.621V167.973C13.7656 146.996 7.86603 146.996 7.86603 146.996Z" fill="#D71A21"/>
<path d="M58.0121 193.537C58.0121 197.962 44.0827 209.597 43.2633 210.252C42.28 205.5 38.6747 200.42 28.3506 189.932L43.591 174.691C53.7513 184.852 58.0121 187.146 58.0121 193.537Z" fill="#D71A21"/>
</g>
<defs>
<clipPath id="clip0_2230_199">
<rect width="963.216" height="270.231" fill="white"/>
</clipPath>
</defs>
</svg>
