<svg width="309" height="83" viewBox="0 0 309 83" fill="none" xmlns="http://www.w3.org/2000/svg">
<path d="M296.562 36.7584V23.2223H283.006V36.7584H275.55V4.67786H283.006V17.4018H296.562V4.67786H304.018V36.7584H296.562Z" fill="black"/>
<path d="M136.599 4.67786V24.7113C136.599 26.877 136.87 28.9075 137.548 30.3964C138.225 31.8854 139.174 33.239 140.259 34.1865C141.479 35.1341 142.97 35.9462 144.597 36.3523C146.224 36.7584 148.121 37.0291 150.29 37.0291C152.324 37.0291 154.222 36.7584 155.848 36.3523C157.475 35.9462 158.831 35.1341 159.915 34.1865C161 33.239 161.949 31.8854 162.491 30.3964C163.169 28.7721 163.44 26.877 163.44 24.7113V4.67786H156.526V24.5759C156.526 26.6063 155.984 28.2306 155.035 29.4489C154.086 30.6671 152.459 31.344 150.29 31.344C148.121 31.344 146.495 30.6671 145.546 29.4489C144.597 28.2306 144.055 26.6063 144.055 24.5759V4.67786H136.599Z" fill="black"/>
<path d="M115.18 36.7584V10.6337H106.504V4.67786H131.447V7.52043C131.447 9.28013 130.092 10.6337 128.329 10.6337H122.636V36.7584H115.18Z" fill="black"/>
<path d="M234.475 4.67786H241.931V36.7584H234.475V4.67786Z" fill="black"/>
<path d="M209.802 21.7333L210.073 22.004L219.563 34.1865C220.783 35.6755 222.545 36.623 224.579 36.623H230.543L216.987 19.2968L216.852 19.0261L216.987 18.7554L228.103 4.67786H220.376L210.073 18.4847L209.802 18.7554V18.2139V4.67786H202.346V36.7584H209.802V22.2748V21.7333Z" fill="black"/>
<path d="M192.721 36.7584C190.552 36.7584 188.383 35.5401 187.299 33.7804L181.47 24.3052H177.81V36.8937H170.354V4.67786H183.639C187.028 4.67786 189.739 5.62538 191.501 7.24971C193.399 9.0094 194.348 11.4459 194.348 14.2885C194.348 15.7774 193.942 17.2664 193.128 18.7554C192.315 20.2444 190.959 21.4626 189.061 22.4101L188.655 22.5455L197.737 36.623H192.721V36.7584ZM177.81 19.2968H182.148C183.639 19.2968 184.859 18.8907 185.672 18.0786C186.486 17.2664 186.892 16.1835 186.892 14.8299C186.892 13.4763 186.486 12.3934 185.808 11.5813C184.994 10.7691 183.91 10.363 182.283 10.363H177.945V19.2968H177.81Z" fill="black"/>
<path d="M248.031 35.4048V29.3135C250.336 30.3964 253.453 31.4793 256.571 31.4793C260.232 31.4793 261.994 30.2611 261.994 27.8246C261.994 24.982 259.554 24.7113 254.538 22.5455C251.149 21.0565 248.031 18.7554 248.031 13.341C248.031 7.11435 252.776 4.13641 259.418 4.13641C262.943 4.13641 265.925 4.94858 267.552 5.62538V11.5813C265.925 10.7691 262.943 9.82157 259.825 9.82157C256.571 9.82157 255.08 11.0398 255.08 13.0702C255.08 15.236 256.978 15.9128 260.232 17.1311C264.434 19.2968 269.45 20.2444 269.45 27.4185C269.45 33.6451 264.434 37.0291 257.791 37.0291C253.86 37.1645 250.607 36.4877 248.031 35.4048Z" fill="black"/>
<path d="M259.689 78.5849V46.5044H279.753V49.3469C279.753 51.1066 278.397 52.4602 276.635 52.4602H267.01V59.3636H277.855V64.7781H267.01V72.629H279.753V78.5849H259.689Z" fill="black"/>
<path d="M186.214 78.5849V46.5044H189.875C192.044 46.5044 193.67 48.2641 193.67 50.2945V72.7644H205.464V78.5849H186.214Z" fill="black"/>
<path d="M140.259 78.5849V46.5044H147.715V78.5849H140.259Z" fill="black"/>
<path d="M176.725 78.5849C174.556 78.5849 172.387 77.3666 171.303 75.607L165.473 66.1317H161.813V78.7203H154.357V46.5044H167.642C171.031 46.5044 173.743 47.4519 175.505 49.0762C177.403 50.8359 178.352 53.2724 178.352 56.115C178.352 57.604 177.945 59.0929 177.132 60.7173C176.318 62.2062 174.963 63.4245 173.065 64.372L172.658 64.5074L181.741 78.5849H176.725ZM161.949 61.1233H166.287C167.914 61.1233 168.998 60.7173 169.811 59.9051C170.625 59.0929 171.031 58.01 171.031 56.6564C171.031 55.3028 170.625 54.2199 169.947 53.4078C169.134 52.5956 168.049 52.1895 166.422 52.1895H162.084L161.949 61.1233Z" fill="black"/>
<path d="M123.991 46.5044H115.451L103.386 78.5849H108.673C110.028 78.5849 111.248 77.7727 111.655 76.4191L112.875 72.629H125.889L127.787 78.5849H135.785L123.991 46.5044ZM114.773 66.9439L117.62 58.8222C118.298 57.0625 118.975 55.0321 119.382 53.6785H119.518C119.924 55.1675 120.602 56.9272 121.144 58.8222L123.991 66.9439H114.773Z" fill="black"/>
<path d="M285.717 77.2313V71.14C288.022 72.2229 291.14 73.3058 294.258 73.3058C297.918 73.3058 299.68 72.0876 299.68 69.6511C299.68 66.8085 297.24 66.5378 292.224 64.372C288.835 62.883 285.717 60.5819 285.717 55.1675C285.717 48.9409 290.462 45.9629 297.105 45.9629C300.629 45.9629 303.612 46.7751 305.238 47.4519V53.4078C303.612 52.5956 300.629 51.6481 297.511 51.6481C294.258 51.6481 292.767 52.8663 292.767 54.8967C292.767 57.0625 294.664 57.7393 297.918 58.9576C302.12 61.1233 307.136 62.0709 307.136 69.245C307.136 75.4716 302.12 78.8556 295.478 78.8556C291.547 78.991 288.293 78.3142 285.717 77.2313Z" fill="black"/>
<path d="M224.579 46.5044H229.188C231.357 46.5044 233.39 47.5872 234.61 49.4823L243.557 63.8306C244.506 65.4549 245.726 67.4853 246.404 68.9743H246.54C246.404 67.4853 246.404 65.5902 246.404 64.1013V46.5044H252.911V78.5849H244.777L233.932 61.2587C232.984 59.6344 231.899 57.7393 231.086 56.2503H230.95C230.95 57.604 231.086 59.2283 231.086 60.8526V78.5849H224.579V46.5044Z" fill="black"/>
<path d="M210.345 46.5044H217.801V78.5849H210.345V46.5044Z" fill="black"/>
<path d="M47.5341 0.887741C68.1396 3.05352 84.2715 20.3797 84.2715 41.6314C84.2715 64.2366 65.9706 82.5103 43.3316 82.5103C20.6927 82.5103 2.2562 64.2366 2.2562 41.6314C2.2562 19.0261 20.5571 0.61702 43.3316 0.61702C44.6873 0.61702 46.1784 0.752381 47.5341 0.887741ZM49.7031 79.6678C70.7152 76.1484 84.9493 56.2503 81.4247 35.134C78.4423 17.6725 64.2082 4.94857 47.3985 3.18888C44.0094 2.78279 40.4848 2.91815 36.9602 3.4596C32.7578 4.1364 28.8264 5.49001 25.3018 7.38506C43.7383 13.747 53.7699 23.3576 54.4477 33.1036C54.8544 39.1949 52.0076 43.5264 48.2119 47.0458L74.511 45.2861C75.1888 45.2861 75.4599 46.0983 74.6466 46.369L11.8811 64.2366C18.2526 73.0351 28.1486 78.8556 39.1292 79.9385C42.6538 80.3446 46.1784 80.3446 49.7031 79.6678ZM32.4866 42.4435C35.8757 29.5842 31.9444 16.0482 22.5906 8.87403C9.84769 16.9957 2.39176 32.1561 5.10301 47.9933C5.91638 53.2724 7.81426 58.01 10.5255 62.2062C20.5571 59.499 29.3687 54.2199 32.4866 42.4435Z" fill="white"/>
<path d="M49.7031 79.6678C70.7153 76.1484 84.9493 56.2504 81.4247 35.1341C78.4423 17.6725 64.2083 4.94858 47.3985 3.18889C44.0095 2.78281 40.4848 2.91817 36.9602 3.45961C32.7578 4.13641 28.8265 5.49002 25.3018 7.38508C43.7383 13.747 53.77 23.3577 54.4478 33.1036C54.8545 39.1949 52.0076 43.5264 48.2119 47.0458L74.511 45.2861C75.1888 45.2861 75.4599 46.0983 74.6466 46.369L11.8811 64.2366C18.2526 73.0351 28.1486 78.8556 39.1292 79.9385C42.6538 80.3446 46.1785 80.3446 49.7031 79.6678ZM32.4866 42.4435C35.8757 29.5843 31.9444 16.0482 22.5906 8.87404C9.84771 16.9957 2.39178 32.1561 5.10303 47.9933C5.9164 53.2724 7.81428 58.01 10.5255 62.2062C20.5571 59.499 29.3687 54.2199 32.4866 42.4435Z" fill="#C70A0C"/>
</svg>
