<svg width="60" height="60" viewBox="0 0 60 60" fill="none" xmlns="http://www.w3.org/2000/svg">
<g clip-path="url(#clip0_2230_231)">
<path d="M58 30C58 45.464 45.464 58 30 58C14.536 58 2 45.464 2 30C2 14.536 14.536 2 30 2C45.464 2 58 14.536 58 30Z" fill="#2196F3" stroke="#42A5F5" stroke-width="4"/>
<mask id="mask0_2230_231" style="mask-type:luminance" maskUnits="userSpaceOnUse" x="0" y="0" width="60" height="60">
<path fill-rule="evenodd" clip-rule="evenodd" d="M30 60C46.5685 60 60 46.5685 60 30C60 13.4315 46.5685 0 30 0C13.4315 0 0 13.4315 0 30C0 46.5685 13.4315 60 30 60Z" fill="white"/>
</mask>
<g mask="url(#mask0_2230_231)">
<path d="M2.71398 22.875H56.536" stroke="#42A5F5" stroke-width="4" stroke-linecap="square"/>
<path d="M2.71398 38.625H56.536" stroke="#42A5F5" stroke-width="4" stroke-linecap="square"/>
<path d="M29.25 4.5C29.25 4.5 19.2878 16.0775 19.5035 30.75C19.7191 45.4225 29.25 55.5 29.25 55.5" stroke="#42A5F5" stroke-width="4" stroke-linecap="round" stroke-linejoin="round"/>
<path d="M30 4.5C30 4.5 39.9622 16.0775 39.7465 30.75C39.5309 45.4225 30 55.5 30 55.5" stroke="#42A5F5" stroke-width="4" stroke-linecap="round" stroke-linejoin="round"/>
</g>
</g>
<defs>
<clipPath id="clip0_2230_231">
<rect width="60" height="60" fill="white"/>
</clipPath>
</defs>
</svg>
