<svg width="60" height="60" viewBox="0 0 60 60" fill="none" xmlns="http://www.w3.org/2000/svg">
<g clip-path="url(#clip0_2230_231)">
<path d="M58 30C58 45.464 45.464 58 30 58C14.536 58 2 45.464 2 30C2 14.536 14.536 2 30 2C45.464 2 58 14.536 58 30Z" fill="#2196F3" stroke="#42A5F5" stroke-width="4"/>
<mask id="mask0_2230_231" style="mask-type:luminance" maskUnits="userSpaceOnUse" x="0" y="0" width="60" height="60">
<path fill-rule="evenodd" clip-rule="evenodd" d="M30 60C46.5685 60 60 46.5685 60 30C60 13.4315 46.5685 0 30 0C13.4315 0 0 13.4315 0 30C0 46.5685 13.4315 60 30 60Z" fill="white"/>
</mask>
<g mask="url(#mask0_2230_231)">
<path d="M2.71398 22.875H56.536" stroke="#42A5F5" stroke-width="4" stroke-linecap="square"/>
<path d="M2.71398 38.625H56.536" stroke="#42A5F5" stroke-width="4" stroke-linecap="square"/>
<path d="M29.25 4.5C29.25 4.5 19.2878 16.0775 19.5035 30.75C19.7191 45.4225 29.25 55.5 29.25 55.5" stroke="#42A5F5" stroke-width="4" stroke-linecap="round" stroke-linejoin="round"/>
<path d="M30 4.5C30 4.5 39.9622 16.0775 39.7465 30.75C39.5309 45.4225 30 55.5 30 55.5" stroke="#42A5F5" stroke-width="4" stroke-linecap="round" stroke-linejoin="round"/>
</g>
<g clip-path="url(#clip1_2230_231)">
<g clip-path="url(#clip2_2230_231)">
<path fill-rule="evenodd" clip-rule="evenodd" d="M40.0829 19.4684C40.2821 19.3555 40.5017 19.2855 40.7317 19.2712C41.7588 19.2073 44.7552 19.1207 45.404 20.2229C46.0527 21.3251 44.4772 23.8265 43.9071 24.6665C43.7795 24.8546 43.608 25.0058 43.4089 25.1186L37.2257 28.6203L38.0838 45.6764C38.0957 45.9133 37.9748 46.1365 37.7689 46.2574L36.4886 47.0095C36.3242 47.1061 36.1245 47.1262 35.9424 47.0645L34.9764 46.7373C34.8151 46.6826 34.6811 46.5683 34.6031 46.4186L28.0383 33.8233L21.5632 37.4903L20.8635 42.1571C20.8158 42.4755 20.5366 42.7083 20.2096 42.7022L19.6914 42.6926C19.4365 42.6878 19.2063 42.5375 19.1018 42.3074L17.2829 38.3039C16.0323 38.3431 14.8582 38.2225 14.5431 37.6873C14.2285 37.1527 14.7096 36.0999 15.3705 35.0617L12.7652 31.5418C12.6143 31.338 12.5967 31.0673 12.72 30.8483L12.9705 30.4033C13.1286 30.1226 13.4738 30.0017 13.7788 30.1204L18.2216 31.8488L24.7082 28.1753L16.9228 16.3806C16.8297 16.2394 16.7957 16.0685 16.8281 15.9041L17.0222 14.92C17.0588 14.7344 17.1764 14.5748 17.3439 14.4834L18.648 13.7719C18.8578 13.6575 19.1153 13.6663 19.3185 13.7949L33.857 22.9942L40.0829 19.4684Z" fill="white"/>
<mask id="mask1_2230_231" style="mask-type:luminance" maskUnits="userSpaceOnUse" x="12" y="13" width="34" height="35">
<path fill-rule="evenodd" clip-rule="evenodd" d="M40.0829 19.4684C40.2821 19.3555 40.5017 19.2855 40.7317 19.2712C41.7588 19.2073 44.7552 19.1207 45.404 20.2229C46.0527 21.3251 44.4772 23.8265 43.9071 24.6665C43.7795 24.8546 43.608 25.0058 43.4089 25.1186L37.2257 28.6203L38.0838 45.6764C38.0957 45.9133 37.9748 46.1365 37.7689 46.2574L36.4886 47.0095C36.3242 47.1061 36.1245 47.1262 35.9424 47.0645L34.9764 46.7373C34.8151 46.6826 34.6811 46.5683 34.6031 46.4186L28.0383 33.8233L21.5632 37.4903L20.8635 42.1571C20.8158 42.4755 20.5366 42.7083 20.2096 42.7022L19.6914 42.6926C19.4365 42.6878 19.2063 42.5375 19.1018 42.3074L17.2829 38.3039C16.0323 38.3431 14.8582 38.2225 14.5431 37.6873C14.2285 37.1527 14.7096 36.0999 15.3705 35.0617L12.7652 31.5418C12.6143 31.338 12.5967 31.0673 12.72 30.8483L12.9705 30.4033C13.1286 30.1226 13.4738 30.0017 13.7788 30.1204L18.2216 31.8488L24.7082 28.1753L16.9228 16.3806C16.8297 16.2394 16.7957 16.0685 16.8281 15.9041L17.0222 14.92C17.0588 14.7344 17.1764 14.5748 17.3439 14.4834L18.648 13.7719C18.8578 13.6575 19.1153 13.6663 19.3185 13.7949L33.857 22.9942L40.0829 19.4684Z" fill="white"/>
</mask>
<g mask="url(#mask1_2230_231)">
<rect width="1.3113" height="12.5551" transform="matrix(0.507252 0.861798 -0.870152 0.492783 34.3238 21.223)" fill="#EBECF2"/>
<path fill-rule="evenodd" clip-rule="evenodd" d="M37.7688 46.2574C37.9747 46.1364 38.0957 45.9132 38.0838 45.6763L37.1976 28.0627L27.8075 33.3805L34.6031 46.4185C34.6811 46.5683 34.815 46.6826 34.9764 46.7372L35.9423 47.0645C36.1244 47.1261 36.3242 47.106 36.4886 47.0095L37.7688 46.2574Z" fill="#DEE1E3"/>
<path opacity="0.4" fill-rule="evenodd" clip-rule="evenodd" d="M17.3463 38.1932L17.2559 38.2444L19.1017 42.3073C19.2063 42.5374 19.4364 42.6877 19.6914 42.6925L20.2096 42.7021C20.5365 42.7082 20.8158 42.4754 20.8635 42.157L21.6024 37.228L21.1272 37.4971C20.9845 37.5779 20.8308 37.6383 20.6699 37.6736C20.1138 37.7955 18.6902 38.087 17.3463 38.1932Z" fill="#DEE1E3"/>
<path fill-rule="evenodd" clip-rule="evenodd" d="M27.9313 33.6181L37.2127 28.3619L37.3136 30.3676L29.6675 36.9492L27.9313 33.6181Z" fill="#C5C6CC"/>
<path fill-rule="evenodd" clip-rule="evenodd" d="M46.4689 23.3856L16.182 40.5376C16.182 40.5376 15.2883 38.9533 14.5431 37.6872C14.5341 37.6719 14.5256 37.6564 14.5175 37.6407C15.8915 37.7382 18.6581 37.6286 21.3412 36.1091L42.3091 24.2346C44.6389 22.9152 45.2095 21.2066 45.5238 20.4721C46.0103 21.7537 46.4689 23.3856 46.4689 23.3856Z" fill="#DEE1E3"/>
</g>
</g>
</g>
</g>
<defs>
<clipPath id="clip0_2230_231">
<rect width="60" height="60" fill="white"/>
</clipPath>
<clipPath id="clip1_2230_231">
<rect width="50" height="50" fill="white" transform="translate(5 4)"/>
</clipPath>
<clipPath id="clip2_2230_231">
<rect width="37.7421" height="35.4596" fill="white" transform="matrix(0.507252 0.861798 -0.870152 0.492783 35.8552 4)"/>
</clipPath>
</defs>
</svg>
