<svg width="50" height="50" viewBox="0 0 50 50" fill="none" xmlns="http://www.w3.org/2000/svg">
<g clip-path="url(#clip0_2230_261)">
<g clip-path="url(#clip1_2230_261)">
<path fill-rule="evenodd" clip-rule="evenodd" d="M35.0829 15.4684C35.2821 15.3555 35.5017 15.2855 35.7317 15.2712C36.7588 15.2073 39.7552 15.1207 40.404 16.2229C41.0527 17.3251 39.4772 19.8265 38.9071 20.6665C38.7795 20.8546 38.608 21.0058 38.4089 21.1186L32.2257 24.6203L33.0838 41.6764C33.0957 41.9133 32.9748 42.1365 32.7689 42.2574L31.4886 43.0095C31.3242 43.1061 31.1245 43.1262 30.9424 43.0645L29.9764 42.7373C29.8151 42.6826 29.6811 42.5683 29.6031 42.4186L23.0383 29.8233L16.5632 33.4903L15.8635 38.1571C15.8158 38.4755 15.5366 38.7083 15.2096 38.7022L14.6914 38.6926C14.4365 38.6878 14.2063 38.5375 14.1018 38.3074L12.2829 34.3039C11.0323 34.3431 9.85815 34.2225 9.54314 33.6873C9.22847 33.1527 9.70955 32.0999 10.3705 31.0617L7.7652 27.5418C7.61432 27.338 7.59667 27.0673 7.71997 26.8483L7.97054 26.4033C8.12864 26.1226 8.47379 26.0017 8.77877 26.1204L13.2216 27.8488L19.7082 24.1753L11.9228 12.3806C11.8297 12.2394 11.7957 12.0685 11.8281 11.9041L12.0222 10.92C12.0588 10.7344 12.1764 10.5748 12.3439 10.4834L13.648 9.77192C13.8578 9.65749 14.1153 9.66632 14.3185 9.79491L28.857 18.9942L35.0829 15.4684Z" fill="white"/>
<mask id="mask0_2230_261" style="mask-type:luminance" maskUnits="userSpaceOnUse" x="7" y="9" width="34" height="35">
<path fill-rule="evenodd" clip-rule="evenodd" d="M35.0829 15.4684C35.2821 15.3555 35.5017 15.2855 35.7317 15.2712C36.7588 15.2073 39.7552 15.1207 40.404 16.2229C41.0527 17.3251 39.4772 19.8265 38.9071 20.6665C38.7795 20.8546 38.608 21.0058 38.4089 21.1186L32.2257 24.6203L33.0838 41.6764C33.0957 41.9133 32.9748 42.1365 32.7689 42.2574L31.4886 43.0095C31.3242 43.1061 31.1245 43.1262 30.9424 43.0645L29.9764 42.7373C29.8151 42.6826 29.6811 42.5683 29.6031 42.4186L23.0383 29.8233L16.5632 33.4903L15.8635 38.1571C15.8158 38.4755 15.5366 38.7083 15.2096 38.7022L14.6914 38.6926C14.4365 38.6878 14.2063 38.5375 14.1018 38.3074L12.2829 34.3039C11.0323 34.3431 9.85815 34.2225 9.54314 33.6873C9.22847 33.1527 9.70955 32.0999 10.3705 31.0617L7.7652 27.5418C7.61432 27.338 7.59667 27.0673 7.71997 26.8483L7.97054 26.4033C8.12864 26.1226 8.47379 26.0017 8.77877 26.1204L13.2216 27.8488L19.7082 24.1753L11.9228 12.3806C11.8297 12.2394 11.7957 12.0685 11.8281 11.9041L12.0222 10.92C12.0588 10.7344 12.1764 10.5748 12.3439 10.4834L13.648 9.77192C13.8578 9.65749 14.1153 9.66632 14.3185 9.79491L28.857 18.9942L35.0829 15.4684Z" fill="white"/>
</mask>
<g mask="url(#mask0_2230_261)">
<rect width="1.3113" height="12.5551" transform="matrix(0.507252 0.861798 -0.870152 0.492783 29.3238 17.223)" fill="#EBECF2"/>
<path fill-rule="evenodd" clip-rule="evenodd" d="M32.7688 42.2574C32.9747 42.1364 33.0957 41.9132 33.0838 41.6763L32.1976 24.0627L22.8075 29.3805L29.6031 42.4185C29.6811 42.5683 29.815 42.6826 29.9764 42.7372L30.9423 43.0645C31.1244 43.1261 31.3242 43.106 31.4886 43.0095L32.7688 42.2574Z" fill="#DEE1E3"/>
<path opacity="0.4" fill-rule="evenodd" clip-rule="evenodd" d="M12.3463 34.1932L12.2559 34.2444L14.1017 38.3073C14.2063 38.5374 14.4364 38.6877 14.6914 38.6925L15.2096 38.7021C15.5365 38.7082 15.8158 38.4754 15.8635 38.157L16.6024 33.228L16.1272 33.4971C15.9845 33.5779 15.8308 33.6383 15.6699 33.6736C15.1138 33.7955 13.6902 34.087 12.3463 34.1932Z" fill="#DEE1E3"/>
<path fill-rule="evenodd" clip-rule="evenodd" d="M22.9313 29.6181L32.2127 24.3619L32.3136 26.3676L24.6675 32.9492L22.9313 29.6181Z" fill="#C5C6CC"/>
<path fill-rule="evenodd" clip-rule="evenodd" d="M41.4689 19.3856L11.182 36.5376C11.182 36.5376 10.2883 34.9533 9.54311 33.6872C9.53409 33.6719 9.52557 33.6564 9.51753 33.6407C10.8915 33.7382 13.6581 33.6286 16.3412 32.1091L37.3091 20.2346C39.6389 18.9152 40.2095 17.2066 40.5238 16.4721C41.0103 17.7537 41.4689 19.3856 41.4689 19.3856Z" fill="#DEE1E3"/>
</g>
</g>
</g>
<defs>
<clipPath id="clip0_2230_261">
<rect width="50" height="50" fill="white"/>
</clipPath>
<clipPath id="clip1_2230_261">
<rect width="37.7421" height="35.4596" fill="white" transform="matrix(0.507252 0.861798 -0.870152 0.492783 30.8552 0)"/>
</clipPath>
</defs>
</svg>
